<svg width="40" height="40" xmlns="http://www.w3.org/2000/svg" xmlns:xlink="http://www.w3.org/1999/xlink">
 <metadata id="metadata4863">image/svg+xml</metadata>
 <defs>
  <radialGradient id="XMLID_3_" cx="-8834.1992" cy="12887.4141" r="41.1383" gradientTransform="matrix(-0.3858 0 0 0.3858 -3379.4106 -4901.9956)" gradientUnits="userSpaceOnUse">
   <stop offset="0" stop-opacity="0.2" stop-color="#3E2723"/>
   <stop offset="1" stop-opacity="0.02" stop-color="#3E2723"/>
  </radialGradient>
  <radialGradient id="XMLID_4_" cx="7316.8618" cy="-4473.7192" r="41.1383" gradientTransform="matrix(0.3858 0 0 -0.3858 -2656.6826 -1584.9586)" gradientUnits="userSpaceOnUse">
   <stop offset="0" stop-opacity="0.2" stop-color="#BF360C"/>
   <stop offset="1" stop-opacity="0.02" stop-color="#BF360C"/>
  </radialGradient>
 </defs>
 <g>
  <title>background</title>
  <rect x="-1" y="-1" width="42" height="42" id="canvas_background" fill="none"/>
 </g>
 <g>
  <title>Layer 1</title>
  <g stroke="null" id="svg_4">
   <g stroke="null" id="XMLID_36_" transform="matrix(0.20299377110908937,0,0,0.20299377110908937,0.643549342643837,245.0408342001066) ">
    <polygon stroke="null" id="XMLID_37_" fill="#FFC107" points="148.20355224609375,-1044.7132647037506 164.1935577392578,-1072.4329912662506 143.2635498046875,-1108.7130205631256 106.34346771240234,-1044.7132647037506 "/>
    <g stroke="null" id="XMLID_29_">
     <path stroke="null" id="XMLID_105_" fill="#0F9D58" d="m181.653483,-1102.713632c2.14,-3.71 2.14,-8.28 0,-11.99l-33.46,-58l-41.85,0l57.85,100.28c0,0 17.46,-30.29 17.46,-30.29z"/>
    </g>
    <path stroke="null" id="XMLID_41_" opacity="0.2" fill="#FFFFFF" d="m181.653483,-1113.713632c0.98,1.71 1.49,3.59 1.57,5.5c0.09,-2.24 -0.42,-4.49 -1.57,-6.5l-33.46,-58l-41.85,0l0.58,1l41.28,0l33.45,58z"/>
    <polygon stroke="null" id="XMLID_42_" opacity="0.2" fill="#FFFFFF" points="106.9234619140625,-1044.7132647037506 143.55355834960938,-1108.2030107975006 143.2635498046875,-1108.7130205631256 106.34346771240234,-1044.7132647037506 "/>
    <path stroke="null" id="XMLID_43_" opacity="0.2" fill="#263238" d="m181.653483,-1103.713632l-17.47,30.28l-57.26,-99.28l-0.58,0l57.85,100.28l17.46,-30.28c1.16,-2.01 1.67,-4.26 1.57,-6.5c-0.07,1.9 -0.58,3.79 -1.57,5.5z"/>
    <polygon stroke="null" id="XMLID_44_" fill="url(#XMLID_4_)" points="164.16355895996094,-1072.4730303287506 143.2635498046875,-1108.7130205631256 137.65354919433594,-1098.9930498600006 "/>
   </g>
   <g stroke="null" id="svg_3">
    <polygon stroke="null" id="XMLID_50_" fill="#DB4437" points="9.234954833984375,6.987378314137459 5.9890851974487305,12.614361003041267 10.23774242401123,19.978985980153084 17.732267379760742,6.987378314137459 "/>
    <g stroke="null" transform="matrix(0.20299377110908937,0,0,0.20299377110908937,0.643549342643837,245.0408342001066) " id="XMLID_40_">
     <path stroke="null" id="XMLID_103_" fill="#4285F4" d="m8.873483,-1114.713632c-2.14,3.71 -2.14,8.28 0,11.99l33.46,58l41.85,0l-57.85,-100.27l-17.46,30.28z"/>
    </g>
    <path stroke="null" id="XMLID_39_" opacity="0.2" fill="#1A237E" d="m2.444811,20.993842c-0.198934,-0.347119 -0.302461,-0.728748 -0.3187,-1.116466c-0.018269,0.454706 0.085257,0.911442 0.3187,1.31946l6.792172,11.773639l8.495289,0l-0.117736,-0.202994l-8.379583,0c0,0 -6.790142,-11.773639 -6.790142,-11.773639z"/>
    <polygon stroke="null" id="XMLID_34_" opacity="0.2" fill="#FFFFFF" points="6.047952651977539,12.71788902580738 9.234954833984375,7.190372660756111 17.61452865600586,7.190372660756111 17.732267379760742,6.987378314137459 9.234954833984375,6.987378314137459 5.9890851974487305,12.614361003041267 "/>
    <polygon stroke="null" id="XMLID_38_" opacity="0.2" fill="#3E2723" points="17.61452865600586,6.987378314137459 10.180904388427734,19.87545509636402 10.23774242401123,19.978985980153084 17.732267379760742,6.987378314137459 "/>
    <path stroke="null" id="XMLID_33_" opacity="0.2" fill="#FFFFFF" d="m2.444811,18.963904l3.546301,-6.146651l11.623423,20.153222l0.117736,0l-11.74319,-20.356215l-3.544271,6.146651c-0.235473,0.408017 -0.339,0.864753 -0.3187,1.31946c0.01421,-0.385688 0.117736,-0.769346 0.3187,-1.116466z"/>
    <polygon stroke="null" id="XMLID_32_" fill="url(#XMLID_3_)" points="5.995173931121826,12.622488215565681 10.23774242401123,19.978985980153084 11.376538276672363,18.00589294731617 "/>
   </g>
  </g>
 </g>
</svg>